<svg width="111" height="40" viewBox="0 0 111 40" fill="none" xmlns="http://www.w3.org/2000/svg">
<path d="M51.0526 30.8133L53.0742 24.7726H62.2847L64.3182 30.8133H69.055L60.4187 6.31567H54.9402L46.3158 30.8133H51.0526ZM54.2703 21.208L57.5837 11.3396H57.7751L61.0885 21.208H54.2703Z" fill="#212B36"/>
<path d="M72.0903 37.7032H76.4205V27.9185H76.5999C77.2817 29.2583 78.7052 31.1362 81.863 31.1362C86.1932 31.1362 89.4348 27.7032 89.4348 21.6506C89.4348 15.5262 86.0975 12.2008 81.8511 12.2008C78.6095 12.2008 77.2578 14.1506 76.5999 15.4784H76.3487V12.4401H72.0903V37.7032ZM76.3367 21.6267C76.3367 18.0621 77.8678 15.7535 80.6549 15.7535C83.5377 15.7535 85.0209 18.2056 85.0209 21.6267C85.0209 25.0717 83.5138 27.5836 80.6549 27.5836C77.8918 27.5836 76.3367 25.1913 76.3367 21.6267Z" fill="#212B36"/>
<path d="M93.1429 37.7032H97.4731V27.9185H97.6525C98.3343 29.2583 99.7578 31.1362 102.916 31.1362C107.246 31.1362 110.487 27.7032 110.487 21.6506C110.487 15.5262 107.15 12.2008 102.904 12.2008C99.6621 12.2008 98.3104 14.1506 97.6525 15.4784H97.4013V12.4401H93.1429V37.7032ZM97.3894 21.6267C97.3894 18.0621 98.9205 15.7535 101.708 15.7535C104.59 15.7535 106.074 18.2056 106.074 21.6267C106.074 25.0717 104.566 27.5836 101.708 27.5836C98.9444 27.5836 97.3894 25.1913 97.3894 21.6267Z" fill="#212B36"/>
<path fill-rule="evenodd" clip-rule="evenodd" d="M10.9641 36.3454C6.80921 37.7304 3.00781 33.4832 4.84313 29.5067L15.4603 6.50292C17.2478 2.63008 22.7523 2.63008 24.5398 6.50292L35.1568 29.5067C36.9922 33.4832 33.1908 37.7304 29.036 36.3454L21.5812 33.8605C20.5548 33.5184 19.4453 33.5184 18.419 33.8605L10.9641 36.3454Z" fill="#3056D3"/>
<path d="M21.6667 33.8889L21.5812 33.8604C20.5548 33.5183 19.4453 33.5183 18.419 33.8604L18.3333 33.8889L18.3333 16.6667C18.3333 15.7462 19.0795 15 20 15C20.9205 15 21.6667 15.7462 21.6667 16.6667L21.6667 33.8889Z" fill="#98AAE9"/>
</svg>
